<svg width="128" height="128" viewBox="0 0 128 128" fill="none" xmlns="http://www.w3.org/2000/svg">
<rect width="128" height="128" fill="white"/>
<rect x="24" y="24" width="80" height="80" fill="url(#paint0_linear_36_39)"/>
<path d="M46.0472 24H24V46.0472L46.0472 24Z" fill="url(#paint1_linear_36_39)"/>
<path d="M74.3937 24L24 74.3937V104L104 24H74.3937Z" fill="url(#paint2_linear_36_39)"/>
<path d="M104 53.6063L53.6063 104H81.3228L104 81.3228V53.6063Z" fill="url(#paint3_linear_36_39)"/>
<path d="M24 30H46.0472L24 52.0472V80.3937L74.3937 30H104L24 110H53.6063L104 59.6063V87.3228L81.3228 110H104" stroke="black" stroke-linecap="square" stroke-linejoin="round"/>
<defs>
<linearGradient id="paint0_linear_36_39" x1="24" y1="104" x2="104" y2="24" gradientUnits="userSpaceOnUse">
<stop stop-color="#FFD66B"/>
<stop offset="1" stop-color="#FFD66B" stop-opacity="0"/>
</linearGradient>
<linearGradient id="paint1_linear_36_39" x1="104" y1="24" x2="24" y2="104" gradientUnits="userSpaceOnUse">
<stop stop-color="#9747FF"/>
<stop offset="1" stop-color="#9747FF" stop-opacity="0"/>
</linearGradient>
<linearGradient id="paint2_linear_36_39" x1="104" y1="24" x2="24" y2="104" gradientUnits="userSpaceOnUse">
<stop stop-color="#9747FF"/>
<stop offset="1" stop-color="#9747FF" stop-opacity="0"/>
</linearGradient>
<linearGradient id="paint3_linear_36_39" x1="104" y1="24" x2="24" y2="104" gradientUnits="userSpaceOnUse">
<stop stop-color="#9747FF"/>
<stop offset="1" stop-color="#9747FF" stop-opacity="0"/>
</linearGradient>
</defs>
</svg>
